<svg width="14" height="21" viewBox="0 0 14 21" fill="none" xmlns="http://www.w3.org/2000/svg">
<path d="M4 18.01H10V20.01H4V18.01ZM3.17 13.06C3.58 13.68 3.79 14.42 3.89 15.01H3V17.01H11V15.01H10.11C10.22 14.42 10.42 13.68 10.83 13.06C11.19 12.52 11.59 12.05 11.97 11.6C12.97 10.42 14 9.21 14 7C14 3.14 10.86 0 7 0C3.14 0 0 3.14 0 7C0 9.21 1.03 10.42 2.02 11.58C2.41 12.03 2.8 12.5 3.17 13.05V13.06ZM7 2.01C9.76 2.01 12 4.25 12 7.01C12 8.48 11.38 9.21 10.45 10.31C10.05 10.78 9.6 11.31 9.17 11.95C8.49 12.98 8.2 14.18 8.08 15.01H5.91C5.79 14.18 5.51 12.98 4.83 11.96C4.4 11.31 3.94 10.77 3.54 10.3C2.61 9.21 2 8.49 2 7.01C2 4.25 4.24 2.01 7 2.01Z" fill="black"/>
</svg>
