<svg width="15" height="15" viewBox="0 0 15 15" fill="none" xmlns="http://www.w3.org/2000/svg">
<path d="M14.2501 8.24954C14.0512 8.24954 13.8604 8.17052 13.7198 8.02985C13.5791 7.88919 13.5001 7.69841 13.5001 7.49949C13.5007 6.17905 13.0654 4.89535 12.2619 3.84757C11.4584 2.79979 10.3316 2.04654 9.05621 1.70469C7.78088 1.36284 6.42837 1.45151 5.20858 1.95695C3.98879 2.46238 2.96991 3.35632 2.31006 4.50003C2.2104 4.67221 2.04644 4.79773 1.85423 4.849C1.66203 4.90028 1.45734 4.87309 1.28518 4.77343C1.11302 4.67377 0.987497 4.50979 0.936229 4.31758C0.884961 4.12536 0.912145 3.92065 1.0118 3.74848C1.83699 2.31906 3.11083 1.20194 4.63568 0.570432C6.16053 -0.0610802 7.85115 -0.171681 9.44527 0.255786C11.0394 0.683254 12.4479 1.62489 13.4523 2.93462C14.4566 4.24435 15.0007 5.84895 15.0001 7.49949C15.0001 7.69841 14.9211 7.88919 14.7804 8.02985C14.6398 8.17052 14.449 8.24954 14.2501 8.24954ZM13.4064 15C13.2074 15 13.0167 14.921 12.876 14.7803C12.7354 14.6397 12.6564 14.4489 12.6564 14.2499V11.6248H10.0313C9.83243 11.6248 9.64166 11.5457 9.50101 11.4051C9.36036 11.2644 9.28134 11.0736 9.28134 10.8747C9.28134 10.6758 9.36036 10.485 9.50101 10.3444C9.64166 10.2037 9.83243 10.1247 10.0313 10.1247H13.4064C13.6053 10.1247 13.796 10.2037 13.9367 10.3444C14.0773 10.485 14.1564 10.6758 14.1564 10.8747V14.2499C14.1564 14.4489 14.0773 14.6397 13.9367 14.7803C13.796 14.921 13.6053 15 13.4064 15Z" fill="#333652"/>
<path d="M7.50003 15C5.51151 14.998 3.605 14.2071 2.1989 12.8009C0.792803 11.3947 0.00198555 9.48809 0 7.49944C0 7.30051 0.0790179 7.10974 0.219671 6.96907C0.360324 6.82841 0.55109 6.74939 0.750003 6.74939C0.948917 6.74939 1.13968 6.82841 1.28034 6.96907C1.42099 7.10974 1.50001 7.30051 1.50001 7.49944C1.49944 8.81988 1.93468 10.1036 2.73819 11.1514C3.54171 12.1991 4.66856 12.9524 5.9439 13.2942C7.21923 13.6361 8.57174 13.5474 9.79153 13.042C11.0113 12.5365 12.0302 11.6426 12.6901 10.4989C12.7394 10.4136 12.8051 10.3389 12.8833 10.2791C12.9615 10.2192 13.0507 10.1753 13.1459 10.1499C13.241 10.1245 13.3403 10.1181 13.4379 10.1311C13.5356 10.1441 13.6297 10.1762 13.7149 10.2255C13.8002 10.2748 13.8749 10.3405 13.9347 10.4187C13.9946 10.4969 14.0385 10.5862 14.0639 10.6814C14.0893 10.7765 14.0957 10.8758 14.0827 10.9734C14.0697 11.0711 14.0377 11.1652 13.9883 11.2504C13.3288 12.388 12.3827 13.3328 11.2443 13.9907C10.1058 14.6486 8.81486 14.9965 7.50003 15Z" fill="#333652"/>
</svg>
