<svg width="20" height="20" viewBox="0 0 20 20" fill="none" xmlns="http://www.w3.org/2000/svg">
<path fill-rule="evenodd" clip-rule="evenodd" d="M9.12 1.04175H10.88C12.4117 1.04175 13.625 1.04175 14.5742 1.16925C15.5508 1.30091 16.3417 1.57758 16.9658 2.20091C17.5892 2.82508 17.8658 3.61591 17.9975 4.59258C18.125 5.54258 18.125 6.75508 18.125 8.28675V11.7134C18.125 13.2451 18.125 14.4584 17.9975 15.4076C17.8658 16.3842 17.5892 17.1751 16.9658 17.7992C16.3417 18.4226 15.5508 18.6992 14.5742 18.8309C13.6242 18.9584 12.4117 18.9584 10.88 18.9584H9.12C7.58833 18.9584 6.375 18.9584 5.42583 18.8309C4.44917 18.6992 3.65833 18.4226 3.03417 17.7992C2.41083 17.1751 2.13417 16.3842 2.0025 15.4076C1.875 14.4576 1.875 13.2451 1.875 11.7134V8.28675C1.875 6.75508 1.875 5.54175 2.0025 4.59258C2.13417 3.61591 2.41083 2.82508 3.03417 2.20091C3.65833 1.57758 4.44917 1.30091 5.42583 1.16925C6.37583 1.04175 7.58833 1.04175 9.12 1.04175ZM5.59167 2.40841C4.75333 2.52091 4.27 2.73258 3.91667 3.08508C3.565 3.43758 3.35333 3.92091 3.24083 4.75925C3.12583 5.61591 3.12417 6.74425 3.12417 8.33342V11.6667C3.12417 13.2559 3.12583 14.3851 3.24083 15.2417C3.35333 16.0792 3.565 16.5626 3.9175 16.9151C4.27 17.2676 4.75333 17.4792 5.59167 17.5917C6.44833 17.7067 7.57667 17.7084 9.16583 17.7084H10.8325C12.4217 17.7084 13.5508 17.7067 14.4075 17.5917C15.245 17.4792 15.7283 17.2676 16.0808 16.9151C16.4333 16.5626 16.645 16.0792 16.7575 15.2409C16.8725 14.3851 16.8742 13.2559 16.8742 11.6667V8.33342C16.8742 6.74425 16.8725 5.61591 16.7575 4.75841C16.645 3.92091 16.4333 3.43758 16.0808 3.08508C15.7283 2.73258 15.245 2.52091 14.4067 2.40841C13.5508 2.29341 12.4217 2.29175 10.8325 2.29175H9.16583C7.57667 2.29175 6.44917 2.29341 5.59167 2.40841ZM6.04167 8.33342C6.04167 8.16765 6.10751 8.00868 6.22472 7.89147C6.34194 7.77426 6.50091 7.70842 6.66667 7.70842H13.3333C13.4991 7.70842 13.6581 7.77426 13.7753 7.89147C13.8925 8.00868 13.9583 8.16765 13.9583 8.33342C13.9583 8.49918 13.8925 8.65815 13.7753 8.77536C13.6581 8.89257 13.4991 8.95842 13.3333 8.95842H6.66667C6.50091 8.95842 6.34194 8.89257 6.22472 8.77536C6.10751 8.65815 6.04167 8.49918 6.04167 8.33342ZM6.04167 11.6667C6.04167 11.501 6.10751 11.342 6.22472 11.2248C6.34194 11.1076 6.50091 11.0417 6.66667 11.0417H10.8333C10.9991 11.0417 11.1581 11.1076 11.2753 11.2248C11.3925 11.342 11.4583 11.501 11.4583 11.6667C11.4583 11.8325 11.3925 11.9915 11.2753 12.1087C11.1581 12.2259 10.9991 12.2917 10.8333 12.2917H6.66667C6.50091 12.2917 6.34194 12.2259 6.22472 12.1087C6.10751 11.9915 6.04167 11.8325 6.04167 11.6667Z" fill="black"/>
</svg>
