<svg width="15" height="15" viewBox="0 0 15 15" fill="none" xmlns="http://www.w3.org/2000/svg">
<path d="M8.03475 11.0347C8.17825 10.8907 8.25 10.7125 8.25 10.5V7.5C8.25 7.2875 8.178 7.1095 8.034 6.966C7.89 6.8225 7.712 6.7505 7.5 6.75C7.288 6.7495 7.11 6.8215 6.966 6.966C6.822 7.1105 6.75 7.2885 6.75 7.5V10.5C6.75 10.7125 6.822 10.8907 6.966 11.0347C7.11 11.1787 7.288 11.2505 7.5 11.25C7.712 11.2495 7.89025 11.1782 8.03475 11.0347ZM8.03475 5.034C8.17825 4.8905 8.25 4.7125 8.25 4.5C8.25 4.2875 8.178 4.1095 8.034 3.966C7.89 3.8225 7.712 3.7505 7.5 3.75C7.288 3.7495 7.11 3.8215 6.966 3.966C6.822 4.1105 6.75 4.2885 6.75 4.5C6.75 4.7115 6.822 4.88975 6.966 5.03475C7.11 5.17975 7.288 5.2515 7.5 5.25C7.712 5.2485 7.89025 5.1765 8.03475 5.034ZM7.5 15C6.4625 15 5.4875 14.803 4.575 14.409C3.6625 14.015 2.86875 13.4807 2.19375 12.8062C1.51875 12.1317 0.9845 11.338 0.591001 10.425C0.197501 9.512 0.000500949 8.537 9.49366e-07 7.5C-0.00049905 6.463 0.196501 5.488 0.591001 4.575C0.9855 3.662 1.51975 2.86825 2.19375 2.19375C2.86775 1.51925 3.6615 0.985 4.575 0.591C5.4885 0.197 6.4635 0 7.5 0C8.5365 0 9.51149 0.197 10.425 0.591C11.3385 0.985 12.1322 1.51925 12.8062 2.19375C13.4802 2.86825 14.0147 3.662 14.4097 4.575C14.8047 5.488 15.0015 6.463 15 7.5C14.9985 8.537 14.8015 9.512 14.409 10.425C14.0165 11.338 13.4822 12.1317 12.8062 12.8062C12.1302 13.4807 11.3365 14.0152 10.425 14.4097C9.51349 14.8042 8.5385 15.001 7.5 15ZM7.5 13.5C9.17499 13.5 10.5937 12.9187 11.7562 11.7562C12.9187 10.5937 13.5 9.175 13.5 7.5C13.5 5.825 12.9187 4.40625 11.7562 3.24375C10.5937 2.08125 9.17499 1.5 7.5 1.5C5.825 1.5 4.40625 2.08125 3.24375 3.24375C2.08125 4.40625 1.5 5.825 1.5 7.5C1.5 9.175 2.08125 10.5937 3.24375 11.7562C4.40625 12.9187 5.825 13.5 7.5 13.5Z" fill="#333652"/>
</svg>
