<svg width="358" height="307" viewBox="0 0 358 307" fill="none" xmlns="http://www.w3.org/2000/svg">
<rect width="225" height="29" rx="5" fill="url(#paint0_linear_20_9)"/>
<rect y="278" width="225" height="29" rx="5" fill="url(#paint1_linear_20_9)"/>
<rect x="57" y="29" width="110" height="50" fill="url(#paint2_linear_20_9)"/>
<rect x="57" y="170" width="110" height="25" fill="url(#paint3_linear_20_9)"/>
<rect x="57" y="199" width="110" height="25" fill="url(#paint4_linear_20_9)"/>
<rect x="57" y="83" width="110" height="25" fill="url(#paint5_linear_20_9)"/>
<rect x="57" y="112" width="110" height="25" fill="url(#paint6_linear_20_9)"/>
<rect x="57" y="141" width="110" height="25" fill="url(#paint7_linear_20_9)"/>
<rect x="57" y="228" width="110" height="50" fill="url(#paint8_linear_20_9)"/>
<path d="M347.283 144.798C347.283 166.56 339.992 186.663 327.711 202.973L352.828 227.746C358.944 233.672 358.944 243.842 352.828 249.768C346.712 255.695 334.702 249.822 328.586 243.896L305.546 224.451C288.714 236.351 267.968 243.416 245.51 243.416C189.29 243.416 143.737 199.275 143.737 144.798C143.737 90.3206 189.29 46.1794 245.51 46.1794C301.73 46.1794 347.283 90.3206 347.283 144.798ZM245.51 213.072C284.409 213.072 315.968 182.491 315.968 144.798C315.968 107.105 284.409 76.5235 245.51 76.5235C206.611 76.5235 175.052 107.105 175.052 144.798C175.052 182.491 206.611 213.072 245.51 213.072Z" fill="url(#paint9_linear_20_9)"/>
<defs>
<linearGradient id="paint0_linear_20_9" x1="-36" y1="15.8697" x2="423.898" y2="-75.7978" gradientUnits="userSpaceOnUse">
<stop/>
<stop offset="1" stop-color="#E0E0E0"/>
</linearGradient>
<linearGradient id="paint1_linear_20_9" x1="-36" y1="293.87" x2="423.898" y2="202.202" gradientUnits="userSpaceOnUse">
<stop/>
<stop offset="1" stop-color="#E0E0E0"/>
</linearGradient>
<linearGradient id="paint2_linear_20_9" x1="39.4" y1="56.3616" x2="272.427" y2="43.1912" gradientUnits="userSpaceOnUse">
<stop/>
<stop offset="1" stop-color="#E0E0E0"/>
</linearGradient>
<linearGradient id="paint3_linear_20_9" x1="39.4" y1="183.681" x2="270.222" y2="157.589" gradientUnits="userSpaceOnUse">
<stop/>
<stop offset="1" stop-color="#E0E0E0"/>
</linearGradient>
<linearGradient id="paint4_linear_20_9" x1="39.4" y1="212.681" x2="270.222" y2="186.589" gradientUnits="userSpaceOnUse">
<stop/>
<stop offset="1" stop-color="#E0E0E0"/>
</linearGradient>
<linearGradient id="paint5_linear_20_9" x1="39.4" y1="96.6808" x2="270.222" y2="70.5892" gradientUnits="userSpaceOnUse">
<stop/>
<stop offset="1" stop-color="#E0E0E0"/>
</linearGradient>
<linearGradient id="paint6_linear_20_9" x1="39.4" y1="125.681" x2="270.222" y2="99.5892" gradientUnits="userSpaceOnUse">
<stop/>
<stop offset="1" stop-color="#E0E0E0"/>
</linearGradient>
<linearGradient id="paint7_linear_20_9" x1="39.4" y1="154.681" x2="270.222" y2="128.589" gradientUnits="userSpaceOnUse">
<stop/>
<stop offset="1" stop-color="#E0E0E0"/>
</linearGradient>
<linearGradient id="paint8_linear_20_9" x1="39.4" y1="255.362" x2="272.427" y2="242.191" gradientUnits="userSpaceOnUse">
<stop/>
<stop offset="1" stop-color="#E0E0E0"/>
</linearGradient>
<linearGradient id="paint9_linear_20_9" x1="492.727" y1="112.248" x2="147.83" y2="129.445" gradientUnits="userSpaceOnUse">
<stop stop-color="#E0E0E0"/>
<stop offset="1"/>
</linearGradient>
</defs>
</svg>
