<svg width="29" height="32" viewBox="0 0 29 32" fill="none" xmlns="http://www.w3.org/2000/svg">
<path d="M29 25.9048V27.4286H0V25.9048L3.22222 22.8571V13.7143C3.22222 8.99048 6.49278 4.83048 11.2778 3.48952V3.04762C11.2778 2.23934 11.6173 1.46417 12.2215 0.892627C12.8258 0.321087 13.6454 0 14.5 0C15.3546 0 16.1742 0.321087 16.7785 0.892627C17.3827 1.46417 17.7222 2.23934 17.7222 3.04762V3.48952C22.5072 4.83048 25.7778 8.99048 25.7778 13.7143V22.8571L29 25.9048ZM17.7222 28.9524C17.7222 29.7607 17.3827 30.5358 16.7785 31.1074C16.1742 31.6789 15.3546 32 14.5 32C13.6454 32 12.8258 31.6789 12.2215 31.1074C11.6173 30.5358 11.2778 29.7607 11.2778 28.9524" fill="black"/>
</svg>
