<svg width="17" height="17" viewBox="0 0 17 17" fill="none" xmlns="http://www.w3.org/2000/svg">
<path d="M10.75 3.25034L13.7501 6.2504M15.3806 4.60937C15.7771 4.21293 15.9999 3.6752 16 3.11447C16.0001 2.55375 15.7774 2.01597 15.381 1.61942C14.9845 1.22288 14.4468 1.00007 13.8861 1C13.3254 0.99993 12.7876 1.22261 12.3911 1.61905L2.38146 11.631C2.20733 11.8047 2.07855 12.0184 2.00646 12.2535L1.0157 15.5176C0.996317 15.5825 0.994853 15.6514 1.01146 15.717C1.02808 15.7826 1.06214 15.8425 1.11005 15.8904C1.15796 15.9382 1.21792 15.9722 1.28357 15.9887C1.34923 16.0052 1.41812 16.0036 1.48296 15.9841L4.74774 14.9941C4.98261 14.9227 5.19637 14.7947 5.37024 14.6213L15.3806 4.60937Z" stroke="black" stroke-width="2" stroke-linecap="round" stroke-linejoin="round"/>
</svg>
