<svg width="77" height="40" viewBox="0 0 77 40" fill="none" xmlns="http://www.w3.org/2000/svg">
<rect width="77" height="40" rx="8" fill="black"/>
<path d="M23.625 17.4205C23.5644 16.8826 23.3144 16.4659 22.875 16.1705C22.4356 15.8712 21.8826 15.7216 21.2159 15.7216C20.7386 15.7216 20.3258 15.7973 19.9773 15.9489C19.6288 16.0966 19.358 16.3011 19.1648 16.5625C18.9754 16.8201 18.8807 17.1136 18.8807 17.4432C18.8807 17.7197 18.9451 17.9583 19.0739 18.1591C19.2064 18.3598 19.3788 18.5284 19.5909 18.6648C19.8068 18.7973 20.0379 18.9091 20.2841 19C20.5303 19.0871 20.767 19.1591 20.9943 19.2159L22.1307 19.5114C22.5019 19.6023 22.8826 19.7254 23.2727 19.8807C23.6629 20.036 24.0246 20.2405 24.358 20.4943C24.6913 20.7481 24.9602 21.0625 25.1648 21.4375C25.3731 21.8125 25.4773 22.2614 25.4773 22.7841C25.4773 23.4432 25.3068 24.0284 24.9659 24.5398C24.6288 25.0511 24.1383 25.4545 23.4943 25.75C22.8542 26.0455 22.0795 26.1932 21.1705 26.1932C20.2992 26.1932 19.5455 26.0549 18.9091 25.7784C18.2727 25.5019 17.7746 25.1098 17.4148 24.6023C17.0549 24.0909 16.8561 23.4848 16.8182 22.7841H18.5795C18.6136 23.2045 18.75 23.5549 18.9886 23.8352C19.2311 24.1117 19.5398 24.3182 19.9148 24.4545C20.2936 24.5871 20.7083 24.6534 21.1591 24.6534C21.6553 24.6534 22.0966 24.5758 22.483 24.4205C22.8731 24.2614 23.1799 24.0417 23.4034 23.7614C23.6269 23.4773 23.7386 23.1458 23.7386 22.767C23.7386 22.4223 23.6402 22.1402 23.4432 21.9205C23.25 21.7008 22.9867 21.5189 22.6534 21.375C22.3239 21.2311 21.9508 21.1042 21.5341 20.9943L20.1591 20.6193C19.2273 20.3655 18.4886 19.9924 17.9432 19.5C17.4015 19.0076 17.1307 18.3561 17.1307 17.5455C17.1307 16.875 17.3125 16.2898 17.6761 15.7898C18.0398 15.2898 18.5322 14.9015 19.1534 14.625C19.7746 14.3447 20.4754 14.2045 21.2557 14.2045C22.0436 14.2045 22.7386 14.3428 23.3409 14.6193C23.947 14.8958 24.4242 15.2765 24.7727 15.7614C25.1212 16.2424 25.303 16.7955 25.3182 17.4205H23.625ZM29.1378 20.8182V26H27.4389V14.3636H29.1151V18.6932H29.223C29.4276 18.2235 29.7401 17.8504 30.1605 17.5739C30.581 17.2973 31.1302 17.1591 31.8082 17.1591C32.4067 17.1591 32.9295 17.2822 33.3764 17.5284C33.8272 17.7746 34.1757 18.142 34.4219 18.6307C34.6719 19.1155 34.7969 19.7216 34.7969 20.4489V26H33.098V20.6534C33.098 20.0133 32.9332 19.517 32.6037 19.1648C32.2741 18.8087 31.8158 18.6307 31.2287 18.6307C30.8272 18.6307 30.4673 18.7159 30.1491 18.8864C29.8348 19.0568 29.5866 19.3068 29.4048 19.6364C29.2268 19.9621 29.1378 20.3561 29.1378 20.8182ZM39.6037 26.1932C39.0507 26.1932 38.5507 26.0909 38.1037 25.8864C37.6567 25.678 37.3026 25.3769 37.0412 24.983C36.7836 24.589 36.6548 24.1061 36.6548 23.5341C36.6548 23.0417 36.7495 22.6364 36.9389 22.3182C37.1283 22 37.384 21.7481 37.706 21.5625C38.0279 21.3769 38.3878 21.2367 38.7855 21.142C39.1832 21.0473 39.5885 20.9754 40.0014 20.9261C40.5241 20.8655 40.9484 20.8163 41.2741 20.7784C41.5999 20.7367 41.8366 20.6705 41.9844 20.5795C42.1321 20.4886 42.206 20.3409 42.206 20.1364V20.0966C42.206 19.6004 42.0658 19.2159 41.7855 18.9432C41.509 18.6705 41.0961 18.5341 40.5469 18.5341C39.9749 18.5341 39.5241 18.661 39.1946 18.9148C38.8688 19.1648 38.6435 19.4432 38.5185 19.75L36.9219 19.3864C37.1113 18.8561 37.3878 18.428 37.7514 18.1023C38.1188 17.7727 38.5412 17.5341 39.0185 17.3864C39.4957 17.2348 39.9976 17.1591 40.5241 17.1591C40.8726 17.1591 41.242 17.2008 41.6321 17.2841C42.026 17.3636 42.3935 17.5114 42.7344 17.7273C43.0791 17.9432 43.3613 18.2519 43.581 18.6534C43.8007 19.0511 43.9105 19.5682 43.9105 20.2045V26H42.2514V24.8068H42.1832C42.0734 25.0265 41.9086 25.2424 41.6889 25.4545C41.4692 25.6667 41.187 25.8428 40.8423 25.983C40.4976 26.1231 40.0848 26.1932 39.6037 26.1932ZM39.973 24.8295C40.4427 24.8295 40.8442 24.7367 41.1776 24.5511C41.5147 24.3655 41.7704 24.1231 41.9446 23.8239C42.1226 23.5208 42.2116 23.197 42.2116 22.8523V21.7273C42.151 21.7879 42.0336 21.8447 41.8594 21.8977C41.6889 21.947 41.4938 21.9905 41.2741 22.0284C41.0545 22.0625 40.8404 22.0947 40.6321 22.125C40.4238 22.1515 40.2495 22.1742 40.1094 22.1932C39.7798 22.2348 39.4787 22.3049 39.206 22.4034C38.937 22.5019 38.7211 22.6439 38.5582 22.8295C38.3991 23.0114 38.3196 23.2538 38.3196 23.5568C38.3196 23.9773 38.4749 24.2955 38.7855 24.5114C39.0961 24.7235 39.492 24.8295 39.973 24.8295ZM46.1733 26V17.2727H47.8153V18.6591H47.9062C48.0653 18.1894 48.3456 17.8201 48.7472 17.5511C49.1525 17.2784 49.6108 17.142 50.1222 17.142C50.2282 17.142 50.3532 17.1458 50.4972 17.1534C50.6449 17.161 50.7604 17.1705 50.8438 17.1818V18.8068C50.7756 18.7879 50.6544 18.767 50.4801 18.7443C50.3059 18.7178 50.1316 18.7045 49.9574 18.7045C49.5559 18.7045 49.1979 18.7898 48.8835 18.9602C48.5729 19.1269 48.3267 19.3598 48.1449 19.6591C47.9631 19.9545 47.8722 20.2917 47.8722 20.6705V26H46.1733ZM55.7628 26.1761C54.9029 26.1761 54.1624 25.9924 53.5412 25.625C52.9238 25.2538 52.4465 24.733 52.1094 24.0625C51.776 23.3883 51.6094 22.5985 51.6094 21.6932C51.6094 20.7992 51.776 20.0114 52.1094 19.3295C52.4465 18.6477 52.9162 18.1155 53.5185 17.733C54.1245 17.3504 54.8329 17.1591 55.6435 17.1591C56.1359 17.1591 56.6132 17.2405 57.0753 17.4034C57.5374 17.5663 57.9522 17.822 58.3196 18.1705C58.687 18.5189 58.9768 18.9716 59.1889 19.5284C59.401 20.0814 59.5071 20.7538 59.5071 21.5455V22.1477H52.5696V20.875H57.8423C57.8423 20.428 57.7514 20.0322 57.5696 19.6875C57.3878 19.339 57.1321 19.0644 56.8026 18.8636C56.4768 18.6629 56.0942 18.5625 55.6548 18.5625C55.1776 18.5625 54.7609 18.6799 54.4048 18.9148C54.0526 19.1458 53.7798 19.4489 53.5866 19.8239C53.3973 20.1951 53.3026 20.5985 53.3026 21.0341V22.0284C53.3026 22.6117 53.4048 23.108 53.6094 23.517C53.8177 23.9261 54.1075 24.2386 54.4787 24.4545C54.8499 24.6667 55.2836 24.7727 55.7798 24.7727C56.1018 24.7727 56.3954 24.7273 56.6605 24.6364C56.9257 24.5417 57.1548 24.4015 57.348 24.2159C57.5412 24.0303 57.6889 23.8011 57.7912 23.5284L59.3991 23.8182C59.2704 24.2917 59.0393 24.7064 58.706 25.0625C58.3764 25.4148 57.9616 25.6894 57.4616 25.8864C56.9654 26.0795 56.3991 26.1761 55.7628 26.1761Z" fill="white"/>
</svg>
